<svg width="441" height="90" viewBox="0 0 441 90" fill="none" xmlns="http://www.w3.org/2000/svg">
<path d="M113.92 63.3624C124.526 63.3624 131.257 56.841 131.257 45.9718C131.257 35.1027 124.526 28.5814 113.784 28.5814H100.527V63.3624H113.92ZM109.977 55.3465V36.5972H113.308C118.747 36.5972 121.738 38.7033 121.738 45.9718C121.738 53.2404 118.747 55.3465 113.58 55.3465H109.977ZM143.039 63.7699C146.439 63.7699 149.005 62.6152 150.586 59.694H150.79V63.3624H159.56V45.4964C159.56 40.6731 154.988 36.937 147.526 36.937C139.725 36.937 135.884 41.013 135.561 45.768H144.195C144.416 44.1547 145.606 43.3906 147.39 43.3906C149.022 43.3906 150.178 44.1377 150.178 45.4964V45.5642C150.178 47.0757 148.512 47.5513 144.127 47.8741C138.739 48.2646 134.541 50.4385 134.541 56.1617C134.541 61.3583 138.042 63.7699 143.039 63.7699ZM146.099 57.86C144.501 57.86 143.379 57.0786 143.379 55.6181C143.379 54.2766 144.331 53.2404 146.507 52.9009C148.002 52.6631 149.26 52.3576 150.246 51.9497V54.1236C150.246 56.5012 148.223 57.86 146.099 57.86ZM187.906 45.768C187.668 40.2486 183.079 36.937 175.532 36.937C168.071 36.937 163.465 39.9938 163.499 45.4284C163.465 49.5383 166.133 52.1705 171.454 53.1047L176.076 53.9198C178.116 54.2934 179.034 54.837 179.068 55.8219C179.034 56.9088 177.793 57.5201 176.076 57.5201C173.952 57.5201 172.456 56.6033 172.201 54.9387H162.887C163.397 60.2883 168.02 63.8379 176.008 63.8379C183.232 63.8379 188.552 60.3224 188.586 54.7349C188.552 50.8798 185.969 48.6382 180.632 47.6703L175.329 46.7191C173.34 46.3626 172.779 45.6492 172.813 44.8851C172.779 43.7982 174.122 43.1866 175.736 43.1866C177.589 43.1866 179.136 44.1717 179.272 45.768H187.906ZM201.563 48.6892C201.58 46.1078 203.076 44.5453 205.37 44.5453C207.767 44.5453 209.126 46.1078 209.109 48.6892V63.3624H218.491V46.7191C218.508 41.013 214.905 36.937 209.381 36.937C205.523 36.937 202.667 38.9071 201.495 42.2357H201.223V28.5814H192.181V63.3624H201.563V48.6892ZM222.987 63.3624H232.301V59.0827H232.505C233.593 61.7321 236.108 63.7019 239.78 63.7019C245.355 63.7019 250.046 59.3545 250.046 50.3195C250.046 40.8769 245.014 36.937 239.847 36.937C235.972 36.937 233.525 39.1786 232.505 41.8281H232.369V28.5814H222.987V63.3624ZM232.165 50.3195C232.165 46.4473 233.729 44.1377 236.312 44.1377C238.896 44.1377 240.391 46.4473 240.391 50.3195C240.391 54.1916 238.896 56.5012 236.312 56.5012C233.729 56.5012 232.165 54.1236 232.165 50.3195ZM266.549 63.8379C275.048 63.8379 280.078 58.4033 280.078 50.3875C280.078 42.3714 275.048 36.937 266.549 36.937C258.051 36.937 253.02 42.3714 253.02 50.3875C253.02 58.4033 258.051 63.8379 266.549 63.8379ZM266.618 56.9088C264.1 56.9088 262.606 54.4124 262.606 50.3195C262.606 46.2266 264.1 43.7301 266.618 43.7301C268.996 43.7301 270.493 46.2266 270.493 50.3195C270.493 54.4124 268.996 56.9088 266.618 56.9088ZM291.161 63.7699C294.559 63.7699 297.125 62.6152 298.707 59.694H298.91V63.3624H307.682V45.4964C307.682 40.6731 303.108 36.937 295.647 36.937C287.845 36.937 284.006 41.013 283.681 45.768H292.315C292.536 44.1547 293.727 43.3906 295.511 43.3906C297.144 43.3906 298.298 44.1377 298.298 45.4964V45.5642C298.298 47.0757 296.633 47.5513 292.249 47.8741C286.859 48.2646 282.663 50.4385 282.663 56.1617C282.663 61.3583 286.162 63.7699 291.161 63.7699ZM294.219 57.86C292.621 57.86 291.499 57.0786 291.499 55.6181C291.499 54.2766 292.451 53.2404 294.629 52.9009C296.123 52.6631 297.381 52.3576 298.367 51.9497V54.1236C298.367 56.5012 296.344 57.86 294.219 57.86ZM312.165 63.3624H321.546V49.7761C321.546 46.7872 323.601 44.8171 326.372 44.8171C327.342 44.8171 328.906 44.9698 329.839 45.2927V37.2936C329.092 37.0728 328.276 36.937 327.459 36.937C324.673 36.937 322.498 38.5673 321.546 42.2357H321.275V37.2766H312.165V63.3624ZM340.871 63.7019C344.541 63.7019 347.056 61.7321 348.147 59.0827H348.349V63.3624H357.663V28.5814H348.282V41.8281H348.147C347.126 39.1786 344.679 36.937 340.802 36.937C335.636 36.937 330.605 40.8769 330.605 50.3195C330.605 59.3545 335.296 63.7019 340.871 63.7019ZM344.339 56.5012C341.754 56.5012 340.26 54.1916 340.26 50.3195C340.26 46.4473 341.754 44.1377 344.339 44.1377C346.921 44.1377 348.484 46.4473 348.484 50.3195C348.484 54.1236 346.921 56.5012 344.339 56.5012ZM362.133 63.3624H371.583V54.3954L374.71 50.3195L382.53 63.3624H393.815L381.781 44.0697L393.544 28.5814H382.53L372.059 42.6432H371.583V28.5814H362.133V63.3624ZM398.12 63.3624H407.501V37.2766H398.12V63.3624ZM402.811 34.5594C405.361 34.5594 407.435 32.6403 407.435 30.2797C407.435 27.9191 405.361 26 402.811 26C400.261 26 398.187 27.9191 398.187 30.2797C398.187 32.6403 400.261 34.5594 402.811 34.5594ZM427.851 37.2766H423.365V31.0269H413.981V37.2766H410.649V44.0697H413.981V55.8559C413.915 61.3245 417.297 64.0927 423.772 63.7359C425.896 63.6171 427.476 63.1756 428.327 62.9208L426.968 56.3315C426.609 56.4165 425.692 56.6033 425.13 56.6033C423.907 56.6033 423.365 56.0597 423.365 54.9727V44.0697H427.851V37.2766Z" fill="#2A3141"/>
<path d="M51.2003 9.12255L44.694 28.4422C44.5275 28.9365 43.9656 29.3472 43.2198 29.3319C40.5278 29.2769 37.7864 29.9332 35.2869 31.375C27.9895 35.5849 25.4854 44.9054 29.6965 52.1936C33.9077 59.4819 43.2382 61.9752 50.5357 57.7652C56.4536 54.3512 59.2169 47.5785 57.808 41.2545C57.6454 40.5238 57.938 39.8903 58.3899 39.6295L76.0649 29.4329C76.6489 29.0961 77.3119 29.3486 77.5314 29.8629C84.8831 47.0881 78.3571 67.4879 61.7044 77.095C43.7124 87.4745 20.714 81.3252 10.3353 63.3632C-0.0433693 45.401 6.12626 22.4249 24.1183 12.0454C32.4204 7.25592 41.7857 5.98577 50.4887 7.77132C51.0361 7.88363 51.4159 8.48201 51.2003 9.12255Z" stroke="#2A3141" stroke-width="2"/>
<path d="M52.2732 34.1102C53.1562 34.9202 54.4616 35.1856 55.5 34.5869L73.188 24.3827C74.3966 23.6855 74.7766 22.1121 73.9387 20.9971C70.0875 15.872 65.1403 11.926 59.62 9.29865C58.3605 8.6993 56.8933 9.38284 56.4484 10.7038L49.9369 30.0393C49.5545 31.1751 50.0734 32.4018 51.0441 33.106C51.4703 33.4153 51.8807 33.7501 52.2732 34.1102Z" fill="#7267EF"/>
</svg>
